C:\Users\u0088756\Documents\documenten\software\SoftwareProjects\DC_TrackingSimulation\Data\FitMuscleFunctions\dummy_motion_RightSubtalar.mot
nRows=23
nColumns=14

name C:\Users\u0088756\Documents\documenten\software\SoftwareProjects\DC_TrackingSimulation\Data\FitMuscleFunctions\dummy_motion_RightSubtalar.mot
datacolumns 14
datarows 23
range 37.5100000000 37.7300000000
endheader
time	first_body_list	first_body_rotation	first_body_tilt	first_body_tx	first_body_ty	first_body_tz	subtalar_angle_r	ankle_angle_r	knee_angle_r	hip_flexion_r	hip_adduction_r	hip_rotation_r	mtp_angle_r
       37.5100000000	        0.0000000000	        0.0000000000	        0.0000000000	        0.0000000000	        0.0000000000	        0.0000000000	      -12.4984077523	       32.9030217916	     -115.3276065719	      -42.7063130741	      -21.4399512638	       -2.4822908272	        0.0000000000	
       37.5200000000	        0.0000000000	        0.0000000000	        0.0000000000	        0.0000000000	        0.0000000000	        0.0000000000	        6.4249611005	       32.6422923296	      -14.2296779321	       84.8920913769	       13.1593988184	       -2.2971276167	        0.0000000000	
       37.5300000000	        0.0000000000	        0.0000000000	        0.0000000000	        0.0000000000	        0.0000000000	        0.0000000000	       28.4829089347	       48.2809252841	      -48.4792859277	       26.5447696363	       -8.0312939075	      -27.0561048637	        0.0000000000	
       37.5400000000	        0.0000000000	        0.0000000000	        0.0000000000	        0.0000000000	        0.0000000000	        0.0000000000	      -28.7573026851	       17.7879848869	      -83.4231180003	       24.5093762234	        5.8929467018	       20.5028143532	        0.0000000000	
       37.5500000000	        0.0000000000	        0.0000000000	        0.0000000000	        0.0000000000	        0.0000000000	        0.0000000000	       11.1525650966	      -16.0264727278	      -59.5045076473	      -21.3498180083	       32.1997636297	      -32.2839240604	        0.0000000000	
       37.5600000000	        0.0000000000	        0.0000000000	        0.0000000000	        0.0000000000	        0.0000000000	        0.0000000000	      -29.4074738216	       20.1292221744	      -41.7056733130	      -37.1398405661	      -34.9110776950	        1.0706383450	        0.0000000000	
       37.5700000000	        0.0000000000	        0.0000000000	        0.0000000000	        0.0000000000	        0.0000000000	        0.0000000000	       22.2457020772	       -9.7456343415	     -100.4488285068	      -12.7215361194	        2.2899772115	      -34.9619054308	        0.0000000000	
       37.5800000000	        0.0000000000	        0.0000000000	        0.0000000000	        0.0000000000	        0.0000000000	        0.0000000000	      -21.2752508703	      -29.2294985844	     -108.4090244625	       57.4514241811	      -28.0898390442	        3.4500525213	        0.0000000000	
       37.5900000000	        0.0000000000	        0.0000000000	        0.0000000000	        0.0000000000	        0.0000000000	        0.0000000000	        3.9528257697	       30.1176067496	      -45.5535769272	       82.9915450664	      -14.5850484119	        5.9983161163	        0.0000000000	
       37.6000000000	        0.0000000000	        0.0000000000	        0.0000000000	        0.0000000000	        0.0000000000	        0.0000000000	      -27.5364796079	      -55.9268343188	      -86.2960897949	       17.3203034756	       -5.5222151511	        0.4567150220	        0.0000000000	
       37.6100000000	        0.0000000000	        0.0000000000	        0.0000000000	        0.0000000000	        0.0000000000	        0.0000000000	       25.5130809192	      -18.5305285375	      -41.0389662021	       83.8882244885	       29.1463883199	       34.6778340087	        0.0000000000	
       37.6200000000	        0.0000000000	        0.0000000000	        0.0000000000	        0.0000000000	        0.0000000000	        0.0000000000	      -25.8990298390	      -49.8929693232	      -86.4382401424	       32.4471779496	       -5.5885772931	       13.7825054211	        0.0000000000	
       37.6300000000	        0.0000000000	        0.0000000000	        0.0000000000	        0.0000000000	        0.0000000000	        0.0000000000	      -20.7526210718	       11.9500309272	      -24.0038295244	      -19.2064245792	       39.9364893699	       -7.9802583816	        0.0000000000	
       37.6400000000	        0.0000000000	        0.0000000000	        0.0000000000	        0.0000000000	        0.0000000000	        0.0000000000	      -14.7901011395	       56.1450656474	      -36.0265925344	      117.6049282711	       30.6738249902	        3.8885149145	        0.0000000000	
       37.6500000000	        0.0000000000	        0.0000000000	        0.0000000000	        0.0000000000	        0.0000000000	        0.0000000000	      -22.4334952675	      -28.1229776916	      -55.4925978937	       17.9775221091	      -39.9125941485	      -27.9176510186	        0.0000000000	
       37.6600000000	        0.0000000000	        0.0000000000	        0.0000000000	        0.0000000000	        0.0000000000	        0.0000000000	       -5.3782475799	       58.8060165224	      -79.7116443465	       83.9949189998	      -21.6324245547	       28.8835897011	        0.0000000000	
       37.6700000000	        0.0000000000	        0.0000000000	        0.0000000000	        0.0000000000	        0.0000000000	        0.0000000000	        8.2647298095	        3.8601984464	      -55.9399657806	       47.0317116355	       21.5886895584	      -22.1666538778	        0.0000000000	
       37.6800000000	        0.0000000000	        0.0000000000	        0.0000000000	        0.0000000000	        0.0000000000	        0.0000000000	       13.0453196773	      -40.1308460049	     -113.6916539144	       20.5364114264	      -13.0006463307	       25.1382269192	        0.0000000000	
       37.6900000000	        0.0000000000	        0.0000000000	        0.0000000000	        0.0000000000	        0.0000000000	        0.0000000000	        9.7245503506	      -28.9777183911	      -66.5332558733	       -4.8575828533	       23.5882727405	       -0.3064332962	        0.0000000000	
       37.7000000000	        0.0000000000	        0.0000000000	        0.0000000000	        0.0000000000	        0.0000000000	        0.0000000000	      -23.7717149416	       55.0384451192	      -79.7792764992	      -63.5966451649	      -37.3805095871	      -17.1012674208	        0.0000000000	
       37.7100000000	        0.0000000000	        0.0000000000	        0.0000000000	        0.0000000000	        0.0000000000	        0.0000000000	       14.7452333120	        1.7001113911	     -115.4427209818	      -67.5654963799	       -7.4900510614	       29.2625014113	        0.0000000000	
       37.7200000000	        0.0000000000	        0.0000000000	        0.0000000000	        0.0000000000	        0.0000000000	        0.0000000000	      -11.0580208892	       18.1333244352	      -49.9718060936	       12.3823221071	       27.9727945460	        0.6097617552	        0.0000000000	
       37.7300000000	        0.0000000000	        0.0000000000	        0.0000000000	        0.0000000000	        0.0000000000	        0.0000000000	      -20.3849266136	      -20.1672062691	      -60.4103080471	       86.5890549562	        9.2678614521	       -3.0501017340	        0.0000000000	
